# xmcd
#
# Track frame offsets:
#	150
#	11977
#	23354
#	40724
#	59549
#	72999
#	90029
#	100994
#	116369
#	129808
#	139425
#	154133
#	171338
#	181918
#	195458
#
# Disc length: 2739 seconds
#
# Revision: 1
# Processed by: cddbd v1.5.2PL0 Copyright (c) Steve Scherf et al.
# Submitted via: audiograbber 1.83.01
#
DISCID=bd0ab10f
DTITLE=Markus Schimp - Lüsterarien
DYEAR=2002
DGENRE=Ballad
TTITLE0=Sie ist ein herrliches Weib
TTITLE1=Die zerbrochene Schallplatte
TTITLE2=Ich bin so schüchtern Madame
TTITLE3=Nehm'n sie'n Alten
TTITLE4=Das Handtuch
TTITLE5=Ich liebe dich
TTITLE6=Ich muss immer lachen dabei
TTITLE7=Du bist neurodisch
TTITLE8=Der Masochismustango
TTITLE9=Fräulein Mabel
TTITLE10=Bida Buh
TTITLE11=Zyankali
TTITLE12=Mein Weib will mich verlassen
TTITLE13=Humoreske
TTITLE14=Russischer Salat
EXTD=
EXTT0=
EXTT1=
EXTT2=
EXTT3=
EXTT4=
EXTT5=
EXTT6=
EXTT7=
EXTT8=
EXTT9=
EXTT10=
EXTT11=
EXTT12=
EXTT13=
EXTT14=
PLAYORDER=
